<svg id="SvgjsSvg1001" width="288" height="288" xmlns="http://www.w3.org/2000/svg" version="1.1" xmlns:xlink="http://www.w3.org/1999/xlink" xmlns:svgjs="http://svgjs.com/svgjs"><defs id="SvgjsDefs1002"></defs><g id="SvgjsG1008" transform="matrix(1,0,0,1,0,0)"><svg xmlns="http://www.w3.org/2000/svg" width="288" height="288" viewBox="0 0 400 400"><path fill="#58301b" fill-rule="evenodd" d="M173.400 61.597 C 121.670 66.022,85.400 107.808,81.562 167.400 C 78.324 217.687,104.995 252.058,153.000 259.460 C 160.555 260.625,177.483 260.522,183.149 259.277 C 185.431 258.775,187.378 258.445,187.475 258.542 C 187.666 258.733,187.367 259.012,179.200 266.292 C 151.214 291.236,138.927 312.371,140.576 332.726 C 142.884 361.210,178.227 370.043,198.807 347.279 C 211.006 333.785,222.719 305.220,229.755 271.800 C 232.586 258.355,231.558 260.213,239.006 255.092 C 253.265 245.290,258.251 242.000,258.846 242.000 C 259.306 242.000,259.444 241.656,259.369 240.700 C 258.370 228.048,258.290 219.759,259.061 208.683 L 259.306 205.166 253.953 208.839 C 251.009 210.860,246.474 214.036,243.875 215.898 C 241.276 217.760,239.091 219.220,239.018 219.142 C 238.946 219.064,239.494 214.860,240.238 209.800 C 245.468 174.201,245.462 173.722,239.697 168.329 C 234.977 163.914,235.008 163.918,206.379 164.072 L 182.557 164.200 179.505 165.709 C 167.339 171.723,166.720 192.029,178.526 197.783 C 182.364 199.653,184.976 199.993,195.513 199.997 C 206.174 200.001,205.157 198.913,204.037 209.121 C 202.932 219.196,203.070 218.675,201.293 219.428 C 183.905 226.796,156.558 225.177,142.822 215.966 C 129.299 206.898,123.794 194.169,123.806 172.000 C 123.831 127.686,145.170 97.853,177.800 96.514 C 195.706 95.779,201.472 101.718,198.660 118.000 C 196.836 128.554,196.893 131.423,199.007 135.608 C 202.987 143.486,215.814 146.571,225.059 141.874 C 239.449 134.563,243.167 103.688,231.957 84.600 C 221.970 67.596,200.743 59.257,173.400 61.597 M190.794 293.100 C 190.668 299.487,181.328 321.355,176.333 326.960 C 170.052 334.007,169.856 323.475,176.047 311.600 C 180.173 303.685,190.849 290.292,190.794 293.100 " class="color5454f3 svgShape"></path><path fill="#f0ce75" fill-rule="evenodd" d="M279.800 156.009 C 272.510 157.472,268.884 161.163,266.053 170.000 C 259.573 190.232,257.067 217.010,259.408 241.000 C 260.658 253.805,265.719 260.400,274.297 260.400 C 282.674 260.400,286.144 256.450,289.600 242.981 C 297.277 213.060,315.421 181.645,319.281 191.592 C 319.889 193.159,319.058 201.078,316.447 218.600 C 311.334 252.914,313.370 260.371,327.858 260.394 C 339.949 260.413,342.199 256.920,342.800 237.200 C 343.257 222.196,343.810 216.949,347.785 189.855 C 351.444 164.918,350.287 159.133,341.082 156.337 C 325.047 151.466,304.297 167.599,290.840 195.400 C 288.923 199.360,286.956 203.410,286.468 204.400 L 285.582 206.200 285.812 203.200 C 286.296 196.884,287.854 189.076,291.817 173.096 C 294.985 160.321,294.810 157.107,290.882 156.016 C 289.171 155.541,282.154 155.536,279.800 156.009 " class="colorfb5455 svgShape"></path></svg></g></svg>