<svg width="16" height="16" viewBox="0 0 16 16" fill="none" xmlns="http://www.w3.org/2000/svg">
<g id="sass">
<path id="vector" d="M13.7773 8.91734C13.2191 8.92027 12.7339 9.05508 12.3277 9.25437C12.1787 8.95837 12.0296 8.6946 12.0033 8.50117C11.9741 8.2755 11.939 8.13776 11.9741 7.86813C12.0092 7.5985 12.167 7.21457 12.1641 7.18526C12.1611 7.15596 12.129 7.01821 11.8075 7.01528C11.486 7.01235 11.2084 7.07683 11.1763 7.16182C11.1441 7.24681 11.0827 7.44024 11.0418 7.63953C10.9863 7.9326 10.3989 8.97888 10.0628 9.52693C9.95467 9.31299 9.86115 9.12542 9.8407 8.97595C9.81147 8.75028 9.7764 8.61254 9.81147 8.34291C9.84654 8.07328 10.0044 7.68935 10.0014 7.66005C9.99851 7.63074 9.96636 7.49299 9.64489 7.49006C9.32342 7.48713 9.04579 7.55161 9.01364 7.6366C8.98149 7.72159 8.94642 7.92088 8.87921 8.11431C8.81199 8.30774 8.03169 10.0545 7.82712 10.5058C7.72191 10.7373 7.63132 10.922 7.56702 11.048C7.56702 11.048 7.5641 11.0568 7.55533 11.0714C7.4998 11.1799 7.46766 11.2385 7.46766 11.2385C7.46766 11.2385 7.46766 11.2385 7.46766 11.2414C7.42382 11.3205 7.37706 11.3938 7.35368 11.3938C7.33615 11.3938 7.304 11.1828 7.35953 10.8956C7.47642 10.2889 7.75406 9.34522 7.75114 9.31299C7.75114 9.2954 7.80374 9.13128 7.56994 9.04629C7.34199 8.9613 7.26016 9.10197 7.23971 9.10197C7.21925 9.10197 7.20464 9.15179 7.20464 9.15179C7.20464 9.15179 7.45889 8.09086 6.71951 8.09086C6.25776 8.09086 5.62066 8.59788 5.30503 9.05508C5.10631 9.16352 4.68255 9.39505 4.22957 9.64416C4.05714 9.74088 3.87887 9.83759 3.71229 9.92844C3.7006 9.91672 3.68891 9.90207 3.67722 9.89034C2.78295 8.93199 1.12884 8.25499 1.19898 6.96839C1.22528 6.49947 1.38601 5.26856 4.37569 3.77387C6.83641 2.55761 8.79445 2.89465 9.13346 3.64199C9.61859 4.70878 8.0843 6.68997 5.54175 6.97718C4.5715 7.08562 4.06299 6.71048 3.9344 6.56981C3.79997 6.42327 3.77951 6.41448 3.72983 6.44378C3.648 6.48775 3.7006 6.61963 3.72983 6.69583C3.80581 6.89512 4.11852 7.24681 4.64748 7.41972C5.11507 7.57212 6.25191 7.65711 7.62839 7.12372C9.16853 6.52585 10.3726 4.86411 10.019 3.47201C9.66535 2.05939 7.32738 1.5934 5.11507 2.38177C3.79997 2.85069 2.37381 3.58924 1.34802 4.55052C0.129355 5.69351 -0.0635279 6.68704 0.0153786 7.1032C0.298857 8.5803 2.32997 9.54158 3.14241 10.2538C3.1015 10.2772 3.06351 10.2977 3.03136 10.3153C2.62514 10.5175 1.07623 11.3293 0.690467 12.188C0.252098 13.1611 0.760606 13.8586 1.09669 13.9524C2.14001 14.2425 3.21255 13.7208 3.78828 12.8592C4.364 11.9976 4.29386 10.878 4.02792 10.3651C4.025 10.3593 4.02207 10.3534 4.01623 10.3475C4.12144 10.286 4.22957 10.2215 4.33478 10.16C4.54227 10.0369 4.74684 9.92258 4.92219 9.8288C4.82283 10.1014 4.74977 10.4267 4.7147 10.8956C4.67086 11.4466 4.89589 12.1617 5.19106 12.443C5.32257 12.5661 5.47746 12.569 5.57682 12.569C5.92167 12.569 6.07657 12.2818 6.24899 11.9419C6.45941 11.5257 6.64937 11.0421 6.64937 11.0421C6.64937 11.0421 6.41265 12.3492 7.05559 12.3492C7.28939 12.3492 7.52611 12.0444 7.63131 11.8891C7.63131 11.892 7.63131 11.892 7.63131 11.892C7.63131 11.892 7.63716 11.8833 7.64885 11.8627C7.67223 11.8246 7.68684 11.8012 7.68684 11.8012C7.68684 11.8012 7.68684 11.7983 7.68684 11.7953C7.78036 11.6312 7.99078 11.259 8.30348 10.6406C8.70678 9.84345 9.09547 8.847 9.09547 8.847C9.09547 8.847 9.13054 9.09025 9.25036 9.49469C9.3205 9.73208 9.46662 9.99292 9.58352 10.245C9.49 10.3768 9.43155 10.4501 9.43155 10.4501C9.43155 10.4501 9.43155 10.4501 9.43447 10.453C9.35849 10.5527 9.27666 10.6611 9.18606 10.7666C8.86752 11.1476 8.4876 11.5843 8.43499 11.7103C8.37362 11.8598 8.38823 11.9682 8.50513 12.0562C8.58988 12.1206 8.74185 12.1294 8.89674 12.1206C9.18314 12.1001 9.38479 12.0298 9.48416 11.9858C9.63905 11.9301 9.82024 11.8452 9.98974 11.7191C10.3024 11.4876 10.4924 11.1564 10.4749 10.7197C10.4661 10.4794 10.3872 10.2391 10.2908 10.0134C10.32 9.9724 10.3463 9.93137 10.3755 9.89034C10.8694 9.16645 11.2522 8.37222 11.2522 8.37222C11.2522 8.37222 11.2873 8.61547 11.4071 9.01991C11.4656 9.22506 11.5854 9.4478 11.6906 9.66468C11.2259 10.0427 10.9395 10.4824 10.8373 10.7696C10.6531 11.303 10.7963 11.5433 11.0681 11.599C11.1909 11.6253 11.3662 11.5667 11.4948 11.511C11.6585 11.4583 11.8514 11.3674 12.0355 11.2326C12.3482 11.0011 12.6492 10.6787 12.6316 10.242C12.6229 10.0427 12.5703 9.84638 12.4972 9.65588C12.8917 9.49176 13.4003 9.40091 14.049 9.47711C15.4401 9.64123 15.7148 10.5117 15.6622 10.878C15.6096 11.2443 15.3174 11.4436 15.2209 11.5052C15.1245 11.5667 15.0924 11.5872 15.1011 11.6312C15.1128 11.6957 15.1596 11.6928 15.2414 11.681C15.3554 11.6605 15.972 11.385 15.9983 10.711C16.0422 9.84931 15.2239 8.90854 13.7773 8.91734ZM3.00792 12.5275C2.54256 13.0236 1.89459 13.2111 1.61479 13.0524C1.31437 12.8823 1.43218 12.1497 2.00357 11.6247C2.35112 11.3046 2.7988 11.0075 3.09628 10.8258C3.16402 10.7854 3.26416 10.7277 3.38492 10.6556C3.40553 10.6441 3.41731 10.6383 3.41731 10.6383C3.44088 10.6239 3.46444 10.6095 3.488 10.595C3.69712 11.345 3.49684 12.0055 3.00792 12.5275ZM6.45083 10.2938C6.28738 10.6908 5.94562 11.7069 5.73759 11.6506C5.55928 11.6032 5.44933 10.833 5.70193 10.0716C5.82972 9.68947 6.10015 9.23325 6.25766 9.0555C6.51324 8.7711 6.79556 8.6763 6.86391 8.79184C6.9501 8.94293 6.55187 10.045 6.45083 10.2938ZM9.15789 11.6075C9.09048 11.6415 9.026 11.6641 8.99669 11.6471C8.97617 11.6358 9.026 11.5905 9.026 11.5905C9.026 11.5905 9.37479 11.2282 9.51254 11.0641C9.59168 10.9678 9.68547 10.8546 9.78512 10.7273C9.78512 10.7386 9.78512 10.7527 9.78512 10.7641C9.78512 11.1971 9.35134 11.4886 9.15789 11.6075ZM11.3979 11.124C11.3492 11.0871 11.3578 10.9641 11.5208 10.5797C11.5838 10.429 11.7325 10.1768 11.987 9.93388C12.0156 10.0323 12.0356 10.1276 12.0328 10.2168C12.0299 10.8103 11.6352 11.0317 11.3979 11.124Z" fill="#8C5B25"/>
</g>
</svg>
