<svg width="16" height="16" viewBox="0 0 16 16" fill="none" xmlns="http://www.w3.org/2000/svg">
<g id="docker" clip-path="url(#clip0)">
<path id="Vector" d="M8.74737 7.38438H7.09487V5.52813H8.74737V7.38438ZM8.74737 1H7.09487V2.89688H8.74737V1ZM10.7024 5.525H9.04987V7.38125H10.7024V5.525V5.525ZM6.79487 3.27188H5.14237V5.15H6.79487V3.27188ZM8.74737 3.27188H7.09487V5.15H8.74737V3.27188ZM15.6674 6.39688C15.3074 6.09375 14.4774 5.98438 13.8399 6.13438C13.7574 5.38438 13.4224 4.73125 12.8124 4.14375L12.4624 3.85313L12.2299 4.29063C11.7699 5.15938 11.6449 6.59063 12.1374 7.53438C11.9199 7.68125 11.4924 7.88125 10.9274 7.86875H0.059869C-0.157631 9.45625 0.204869 11.5188 1.15987 12.9344C2.08737 14.3063 3.47737 15.0031 5.29487 15.0031C9.22987 15.0031 12.1424 12.7375 13.5049 8.62188C14.0399 8.63438 15.1949 8.625 15.7874 7.20938C15.8249 7.13125 15.9524 6.79688 15.9999 6.675L15.6674 6.39688V6.39688ZM2.88987 5.525H1.23987V7.38125H2.89237V5.525H2.88987ZM4.84237 5.525H3.18987V7.38125H4.84237V5.525ZM6.79487 5.525H5.14237V7.38125H6.79487V5.525ZM4.84237 3.27188H3.18987V5.15H4.84237V3.27188Z" fill="#8C5B25"/>
</g>
<defs>
<clipPath id="clip0">
<rect width="16" height="16" fill="white"/>
</clipPath>
</defs>
</svg>
