<svg width="16" height="16" viewBox="0 0 16 16" fill="none" xmlns="http://www.w3.org/2000/svg">
<g id="figma">
<path id="Vector" d="M0.583252 2.9935C0.583252 1.34025 2.37025 0 4.57463 0H11.4233C13.6277 0 15.4147 1.34025 15.4147 2.9935C15.4147 4.04037 14.6982 4.96175 13.6129 5.49678C14.6982 6.03184 15.4147 6.95319 15.4147 8.00006C15.4147 9.65334 13.6277 10.9936 11.4233 10.9936H11.3366C10.3032 10.9936 9.3615 10.699 8.65267 10.2157V12.974C8.65267 14.6493 6.81896 16 4.59613 16C2.39725 16 0.583252 14.6638 0.583252 13.0065C0.583252 11.9597 1.29971 11.0383 2.38492 10.5033C1.29963 9.96822 0.583252 9.04688 0.583252 8.00006C0.583252 6.95319 1.29975 6.03184 2.385 5.49678C1.29979 4.96175 0.583252 4.04037 0.583252 2.9935ZM7.34525 5.98709H4.57463C3.09229 5.98709 1.89067 6.88834 1.89067 8.00006C1.89067 9.1075 3.08304 10.0061 4.55746 10.013L4.57463 10.013H7.34525V5.98709ZM8.65267 8.00006C8.65267 9.11178 9.85429 10.013 11.3366 10.013H11.4233C12.9056 10.013 14.1073 9.11178 14.1073 8.00006C14.1073 6.88834 12.9056 5.98709 11.4233 5.98709H11.3366C9.85429 5.98709 8.65267 6.88834 8.65267 8.00006ZM4.57463 10.9936L4.55746 10.9936C3.08304 11.0005 1.89067 11.899 1.89067 13.0065C1.89067 14.1141 3.10838 15.0194 4.59613 15.0194C6.10788 15.0194 7.34525 14.0996 7.34525 12.974V10.9936H4.57463V10.9936ZM4.57463 0.980563C3.09229 0.980563 1.89067 1.88181 1.89067 2.9935C1.89067 4.10525 3.09234 5.00647 4.57463 5.00647H7.34525V0.980531H4.57463V0.980563ZM8.65267 5.00647H11.4233C12.9056 5.00647 14.1073 4.10525 14.1073 2.9935C14.1073 1.88178 12.9056 0.980563 11.4233 0.980563H8.65267V5.00647Z" fill="#8C5B25"/>
</g>
</svg>
