<svg width="16" height="16" viewBox="0 0 16 16" fill="none" xmlns="http://www.w3.org/2000/svg">
<g id="git">
<path id="Vector" d="M6.75906 4.94968H4.28125C3.03125 4.62187 0.203438 4.70718 0.203438 7.28687C0.203438 8.22718 0.672187 8.88781 1.29719 9.19312C0.512812 9.91187 0.140938 10.2509 0.140938 10.7309C0.140938 11.0747 0.280625 11.3916 0.7 11.5687C0.254062 11.9878 0 12.2922 0 12.8641C0 13.8675 0.876562 14.4522 3.17594 14.4522C5.38687 14.4522 6.66937 13.6266 6.66937 12.1653C6.66937 10.3322 5.25813 10.3997 1.93094 10.1966L2.35063 9.52312C3.20281 9.75999 6.06 9.83562 6.06 7.40156C6.06 6.81718 5.81844 6.41062 5.59125 6.11812L6.76031 6.02937L6.75906 4.94968ZM4.77719 12.5091C4.77719 13.5109 1.49937 13.5122 1.49937 12.585C1.49937 12.3306 1.66406 12.1162 1.82969 11.9119C4.25812 12.0775 4.77719 12.0172 4.77719 12.5091ZM3.18937 8.30343C1.53937 8.30343 1.6125 6.07968 3.22688 6.07968C4.775 6.07968 4.815 8.30343 3.18937 8.30343ZM7.355 11.4444V10.4412C8.19094 10.3269 8.20625 10.3787 8.20625 10.0975V6.36281C8.20625 6.09718 8.14219 6.13218 7.355 5.85468L7.49469 4.82593H10.125V10.0981C10.125 10.3016 10.1375 10.3269 10.3284 10.3525L10.9762 10.4412V11.4444H7.355ZM8.99406 3.80968C8.27 3.80968 7.85063 3.38999 7.85063 2.66562C7.85063 1.94124 8.27 1.54781 8.99406 1.54781C9.73094 1.54781 10.1503 1.94218 10.1503 2.66562C10.1503 3.38906 9.73094 3.80968 8.99406 3.80968ZM16 10.9519C15.4534 11.2184 14.6531 11.46 13.9288 11.46C12.4169 11.46 11.8453 10.8506 11.8453 9.41437V6.08593C11.8453 5.91656 11.8781 5.95906 10.8544 5.95906V4.82812C11.9725 4.70093 12.4169 4.14062 12.5566 2.75718H13.7638C13.7638 4.81437 13.7219 4.68874 13.8656 4.68874H15.6562V5.95906H13.7638V8.99499C13.7638 9.21124 13.61 10.6016 15.6566 9.83374L16 10.9519Z" fill="#8C5B25"/>
</g>
</svg>
