<svg width="16" height="16" viewBox="0 0 16 16" fill="none" xmlns="http://www.w3.org/2000/svg">
<g id="java" clip-path="url(#clip0)">
<path id="Vector" d="M11.5725 9.77812C11.9808 9.56875 12.5475 9.3875 12.5475 9.3875C12.5475 9.3875 10.935 9.60625 9.33085 9.70625C7.36835 9.82813 5.26002 9.85312 4.20168 9.74687C1.69752 9.49687 5.57668 8.80625 5.57668 8.80625C5.57668 8.80625 4.07252 8.73125 2.21835 9.4C0.0308503 10.1937 7.63502 10.5562 11.5725 9.77812ZM8.01418 8.775C7.22252 7.44062 4.55168 6.26875 8.01418 4.21875C12.3333 1.6625 10.1183 0 10.1183 0C11.0142 2.64062 6.96835 3.44063 5.50585 5.08125C4.51002 6.20313 5.99335 7.40625 8.01418 8.775V8.775ZM12.7892 3.26875C12.7933 3.26875 5.48918 4.6375 8.97668 7.65C10.0059 8.5375 8.70585 9.3375 8.70585 9.3375C8.70585 9.3375 11.3183 8.325 10.1183 7.05937C8.99752 5.87812 8.13918 5.29062 12.7892 3.26875V3.26875ZM12.535 11.7219C12.5122 11.7517 12.4842 11.779 12.4517 11.8031C17.7975 10.75 15.8308 8.0875 13.2767 8.7625C13.1387 8.80052 13.0195 8.8692 12.935 8.95938C13.0842 8.91889 13.2374 8.88754 13.3933 8.86563C14.685 8.6625 16.5392 10.1625 12.535 11.7219V11.7219ZM14.5 13.6687C14.5 13.6687 15.1042 14.0406 13.8375 14.3313C11.425 14.8781 3.80418 15.0437 1.68752 14.3531C0.925017 14.1062 2.35418 13.7594 2.80418 13.6875C3.27085 13.6125 3.54168 13.625 3.54168 13.625C2.69585 13.1781 -1.92915 14.5031 1.19168 14.8813C9.70168 15.9188 16.7083 14.4156 14.5 13.6687ZM5.18502 12.375C1.90585 13.0625 7.18085 14.4813 11.3558 13.1406C10.9487 13.022 10.5556 12.8777 10.1808 12.7094C8.31835 12.975 7.45585 12.9938 5.76418 12.85C4.36835 12.7313 5.18502 12.375 5.18502 12.375V12.375ZM12.6767 15.4125C9.39752 15.875 5.35168 15.8219 2.95585 15.525C2.95585 15.5219 3.44752 15.8281 5.97252 15.95C9.81418 16.1344 15.7142 15.8469 15.8517 14.4844C15.8517 14.4844 15.585 15 12.6767 15.4125V15.4125ZM10.86 11.0312C8.39335 11.3875 6.96418 11.3781 5.16002 11.2375C3.76418 11.1281 4.67668 10.6219 4.67668 10.6219C1.06002 11.5219 6.68502 12.5406 11.7392 11.4312C11.4125 11.3447 11.1132 11.2086 10.86 11.0312Z" fill="#8C5B25"/>
</g>
<defs>
<clipPath id="clip0">
<rect width="16" height="16" fill="white"/>
</clipPath>
</defs>
</svg>
