<svg width="16" height="16" viewBox="0 0 16 16" fill="none" xmlns="http://www.w3.org/2000/svg">
<g id="javascript">
<path id="Vector" d="M14.2857 1H1.71429C0.767857 1 0 1.67188 0 2.5V13.5C0 14.3281 0.767857 15 1.71429 15H14.2857C15.2321 15 16 14.3281 16 13.5V2.5C16 1.67188 15.2321 1 14.2857 1ZM8.70714 11.9187C8.70714 13.2812 7.79286 13.9031 6.46071 13.9031C5.25714 13.9031 4.56071 13.3594 4.20357 12.7L5.42857 12.0531C5.66429 12.4188 5.87857 12.7281 6.39643 12.7281C6.88929 12.7281 7.20357 12.5594 7.20357 11.9V7.42812H8.70714V11.9187V11.9187ZM12.2643 13.9031C10.8679 13.9031 9.96429 13.3219 9.525 12.5594L10.75 11.9406C11.0714 12.4 11.4929 12.7406 12.2321 12.7406C12.8536 12.7406 13.2536 12.4687 13.2536 12.0906C13.2536 11.6406 12.8464 11.4812 12.1571 11.2156L11.7821 11.075C10.6964 10.6719 9.97857 10.1625 9.97857 9.09062C9.97857 8.10312 10.8393 7.35313 12.1786 7.35313C13.1357 7.35313 13.8214 7.64375 14.3143 8.40625L13.1429 9.0625C12.8857 8.65938 12.6071 8.5 12.175 8.5C11.7357 8.5 11.4571 8.74375 11.4571 9.0625C11.4571 9.45625 11.7357 9.61563 12.3821 9.8625L12.7571 10.0031C14.0357 10.4813 14.7536 10.9719 14.7536 12.0719C14.7536 13.2531 13.6893 13.9031 12.2643 13.9031V13.9031Z" 
fill="#8C5B25"/>
</g>
</svg>
