<svg width="16" height="16" viewBox="0 0 16 16" fill="none" xmlns="http://www.w3.org/2000/svg">
<g id="react">
<path id="vector" d="M13.0688 5.53711C12.9 5.48086 12.7312 5.42773 12.5625 5.37773C12.5906 5.26211 12.6156 5.14648 12.6406 5.03086C13.025 3.16836 12.7719 1.67148 11.9187 1.17773C11.0969 0.705859 9.75625 1.19648 8.4 2.37773C8.26562 2.49336 8.13437 2.61523 8.00937 2.73711C7.925 2.65586 7.8375 2.57461 7.75 2.49648C6.32812 1.23398 4.90313 0.702734 4.05 1.19961C3.23125 1.67461 2.9875 3.08398 3.33125 4.84648C3.36562 5.02148 3.40313 5.19336 3.44688 5.36836C3.24688 5.42461 3.05 5.48711 2.86562 5.55273C1.19687 6.13086 0 7.04336 0 7.98711C0 8.96211 1.275 9.94023 3.00938 10.534C3.15 10.5809 3.29063 10.6277 3.43438 10.6684C3.3875 10.8559 3.34687 11.0402 3.30938 11.2309C2.98125 12.9652 3.2375 14.3402 4.05625 14.8121C4.9 15.2996 6.31875 14.7996 7.7 13.5902C7.80937 13.4934 7.91875 13.3934 8.02812 13.2871C8.16562 13.4215 8.30937 13.5496 8.45312 13.6746C9.79062 14.8246 11.1125 15.2902 11.9281 14.8184C12.7719 14.3309 13.0469 12.8527 12.6906 11.0527C12.6625 10.9152 12.6313 10.7746 12.5969 10.6309C12.6969 10.6027 12.7937 10.5715 12.8906 10.5402C14.6938 9.94336 16 8.97773 16 7.98711C16 7.04023 14.7688 6.12148 13.0688 5.53711ZM8.84062 2.88398C10.0031 1.87148 11.0875 1.47461 11.5813 1.75898C12.1094 2.06211 12.3125 3.28711 11.9812 4.89648C11.9594 5.00273 11.9375 5.10586 11.9094 5.20898C11.2156 5.05273 10.5125 4.94023 9.80625 4.87773C9.4 4.29648 8.95625 3.74023 8.475 3.21836C8.59688 3.10273 8.71562 2.99336 8.84062 2.88398ZM5.225 9.60898C5.38438 9.88086 5.54688 10.1527 5.71875 10.4184C5.23125 10.3652 4.74688 10.2871 4.26875 10.184C4.40625 9.73398 4.57812 9.26836 4.77812 8.79336C4.92188 9.06836 5.06875 9.34023 5.225 9.60898ZM4.27812 5.84961C4.72812 5.74961 5.20625 5.66836 5.70312 5.60586C5.5375 5.86523 5.375 6.13086 5.22188 6.39961C5.06875 6.66523 4.91875 6.93711 4.77812 7.21211C4.58125 6.74648 4.41562 6.29023 4.27812 5.84961ZM5.13438 8.00273C5.34063 7.57148 5.56562 7.14961 5.80312 6.73398C6.04063 6.31836 6.29688 5.91523 6.56563 5.51836C7.03438 5.48398 7.5125 5.46523 8 5.46523C8.4875 5.46523 8.96875 5.48398 9.43437 5.51836C9.7 5.91211 9.95312 6.31523 10.1938 6.72773C10.4344 7.14023 10.6594 7.56211 10.8719 7.99023C10.6625 8.42148 10.4375 8.84648 10.1969 9.26523C9.95937 9.68086 9.70625 10.084 9.44063 10.484C8.975 10.5184 8.49063 10.534 8 10.534C7.50938 10.534 7.03437 10.5184 6.575 10.4902C6.30312 10.0934 6.04688 9.68711 5.80625 9.27148C5.56563 8.85586 5.34375 8.43398 5.13438 8.00273ZM10.7781 9.60273C10.9375 9.32773 11.0875 9.04961 11.2344 8.76836C11.4344 9.22148 11.6094 9.68086 11.7625 10.1527C11.2781 10.2621 10.7875 10.3465 10.2937 10.4027C10.4625 10.1402 10.6219 9.87148 10.7781 9.60273ZM11.2281 7.21211C11.0812 6.93711 10.9312 6.66211 10.775 6.39336C10.6219 6.12773 10.4625 5.86523 10.2969 5.60586C10.8 5.66836 11.2812 5.75273 11.7312 5.85586C11.5875 6.31836 11.4187 6.76836 11.2281 7.21211ZM8.00625 3.69648C8.33438 4.05273 8.64375 4.42773 8.93125 4.81523C8.3125 4.78711 7.69063 4.78711 7.07188 4.81523C7.37813 4.41211 7.69375 4.03711 8.00625 3.69648ZM4.38125 1.78086C4.90625 1.47461 6.07188 1.91211 7.3 2.99961C7.37813 3.06836 7.45625 3.14336 7.5375 3.21836C7.05312 3.74023 6.60625 4.29648 6.19688 4.87773C5.49062 4.94023 4.79063 5.04961 4.09688 5.20273C4.05625 5.04336 4.02187 4.88086 3.9875 4.71836C3.69375 3.20586 3.8875 2.06523 4.38125 1.78086ZM3.61562 10.0184C3.48438 9.98086 3.35625 9.94023 3.22813 9.89648C2.5625 9.68711 1.80625 9.35586 1.25937 8.92148C0.94375 8.70273 0.73125 8.36523 0.671875 7.98711C0.671875 7.41523 1.65937 6.68398 3.08437 6.18711C3.2625 6.12461 3.44375 6.06836 3.625 6.01523C3.8375 6.69336 4.09375 7.35898 4.39062 8.00273C4.09062 8.65586 3.83125 9.33086 3.61562 10.0184ZM7.25938 13.0809C6.74375 13.5527 6.14687 13.9277 5.49687 14.184C5.15 14.3496 4.75 14.3652 4.39375 14.2246C3.89688 13.9371 3.69062 12.834 3.97187 11.3496C4.00625 11.1746 4.04375 10.9996 4.0875 10.8277C4.7875 10.9777 5.49375 11.0809 6.20937 11.134C6.62187 11.7184 7.075 12.2777 7.55937 12.8027C7.45937 12.8996 7.35938 12.9934 7.25938 13.0809ZM8.025 12.3215C7.70625 11.9777 7.3875 11.5965 7.07812 11.1871C7.37813 11.1996 7.6875 11.2059 8 11.2059C8.32187 11.2059 8.6375 11.1996 8.95 11.184C8.6625 11.5809 8.35312 11.959 8.025 12.3215ZM12.1094 13.259C12.0813 13.6402 11.8938 13.9965 11.5938 14.2371C11.0969 14.5246 10.0375 14.1496 8.89375 13.1684C8.7625 13.0559 8.63125 12.934 8.49687 12.809C8.975 12.2809 9.41563 11.7215 9.81563 11.134C10.5312 11.0746 11.2437 10.9652 11.9469 10.8059C11.9781 10.934 12.0063 11.0621 12.0312 11.1871C12.1844 11.8621 12.2094 12.5652 12.1094 13.259ZM12.6781 9.89961C12.5906 9.92773 12.5031 9.95586 12.4125 9.98086C12.1938 9.29961 11.925 8.63398 11.6156 7.98711C11.9156 7.34961 12.1688 6.69336 12.3813 6.02148C12.5438 6.06836 12.7 6.11836 12.85 6.16836C14.3063 6.66836 15.3281 7.41211 15.3281 7.98086C15.3281 8.59336 14.2375 9.38398 12.6781 9.89961ZM8 9.43086C8.79062 9.43086 9.43125 8.79023 9.43125 7.99961C9.43125 7.20898 8.79062 6.56836 8 6.56836C7.20937 6.56836 6.56875 7.20898 6.56875 7.99961C6.56875 8.79023 7.20937 9.43086 8 9.43086Z" 
fill="#8C5B25"/>
</g>
</svg>
