<svg width="16" height="16" viewBox="0 0 16 16" fill="none" xmlns="http://www.w3.org/2000/svg">
<g id="recoil">
<path id="vector" d="M8.43717 0C9.18421 0 9.78929 0.605079 9.78929 1.35211C9.78929 1.91461 9.44505 2.39725 8.95531 2.60131V3.1709C8.95531 3.72629 9.3723 4.19829 9.92414 4.26749L10.0874 4.28879C10.9711 4.40058 11.656 5.03582 11.8317 5.90884C12.0073 6.78186 11.624 7.63358 10.8522 8.08074C10.5008 8.28302 10.1176 8.40546 9.71299 8.44449L7.25896 8.67517C7.00876 8.69824 6.77276 8.77454 6.55451 8.90052C6.10913 9.15781 6.02218 9.60319 6.08961 9.93324C6.15704 10.2633 6.41078 10.6395 6.92004 10.7033L7.08329 10.7246C8.16924 10.8595 8.98725 11.7875 8.98725 12.8823V13.4111C9.46102 13.6205 9.79284 14.096 9.79284 14.6479C9.79284 15.3949 9.18776 16 8.44072 16C7.69369 16 7.08861 15.3949 7.08861 14.6479C7.08861 14.0872 7.43108 13.6045 7.91904 13.4005V12.8823C7.91904 12.3269 7.50205 11.8549 6.95021 11.7857L6.78696 11.7644C5.90329 11.6527 5.21837 11.0174 5.0427 10.1444C4.86526 9.27138 5.25031 8.41965 6.02218 7.9725C6.37352 7.77021 6.75679 7.64778 7.16136 7.60874L9.61539 7.37806C9.86559 7.355 10.1016 7.2787 10.3198 7.15271C10.7652 6.89542 10.8522 6.45004 10.7847 6.12C10.7173 5.78995 10.4636 5.41377 9.95431 5.34989L9.79106 5.3286C8.70511 5.19375 7.8871 4.26572 7.8871 3.1709V2.58711C7.41511 2.37596 7.08506 1.90218 7.08506 1.35211C7.08506 0.605079 7.69014 0 8.43717 0ZM10.0625 9.0478L10.8202 9.87823C11.3898 10.5046 11.7039 11.3137 11.7039 12.1584H10.6339C10.6339 11.5799 10.4192 11.0263 10.0306 10.5986L8.74238 9.1862L9.77154 9.08861L9.91771 9.07087L10.0625 9.0478ZM6.14639 3.85405C6.14639 4.43252 6.3611 4.98614 6.7497 5.41377L8.04148 6.82977L7.09039 6.92026L6.90718 6.94156L6.72663 6.97349L5.96185 6.13419C5.39226 5.50959 5.07819 4.69868 5.07819 3.85405H6.14639Z" fill="#8C5B25"/>
</g>
</svg>
