<svg id="svg" version="1.1" xmlns="http://www.w3.org/2000/svg" xmlns:xlink="http://www.w3.org/1999/xlink" width="400" height="324.4979919678715" viewBox="0, 0, 400,324.4979919678715"><g id="svgg"><path id="path0" d="M182.955 21.125 C 178.835 21.284,176.246 21.534,175.162 21.877 C 174.269 22.159,172.005 22.559,170.130 22.766 C 168.255 22.972,166.319 23.344,165.829 23.592 C 165.338 23.839,163.830 24.182,162.477 24.354 C 160.877 24.556,159.727 24.894,159.186 25.320 C 158.697 25.705,157.865 25.974,157.168 25.974 C 156.515 25.974,155.427 26.257,154.749 26.602 C 154.071 26.948,152.808 27.383,151.941 27.568 C 151.075 27.754,149.882 28.202,149.290 28.562 C 148.698 28.923,147.920 29.219,147.560 29.220 C 147.200 29.220,146.397 29.491,145.774 29.822 C 145.152 30.153,144.058 30.613,143.344 30.844 C 142.630 31.074,141.697 31.534,141.271 31.865 C 140.845 32.197,140.157 32.468,139.742 32.468 C 139.326 32.468,138.725 32.745,138.406 33.083 C 138.086 33.422,137.293 33.844,136.643 34.021 C 135.994 34.198,135.153 34.652,134.776 35.029 C 134.399 35.406,133.804 35.714,133.454 35.714 C 133.104 35.714,132.556 35.981,132.237 36.307 C 131.917 36.633,131.144 37.100,130.519 37.343 C 129.894 37.587,129.266 37.978,129.123 38.211 C 128.981 38.445,128.672 38.636,128.437 38.636 C 128.202 38.636,127.658 38.913,127.229 39.251 C 126.799 39.589,126.003 40.137,125.460 40.468 C 123.704 41.540,122.256 42.499,121.591 43.029 C 121.234 43.314,120.211 44.013,119.318 44.582 C 118.425 45.151,117.037 46.236,116.234 46.993 C 115.430 47.749,114.676 48.370,114.559 48.373 C 113.737 48.388,99.660 61.961,97.657 64.669 C 95.697 67.320,93.539 69.963,92.614 70.847 C 92.212 71.231,91.883 71.681,91.883 71.846 C 91.883 72.011,91.554 72.551,91.153 73.045 C 90.751 73.540,90.130 74.432,89.773 75.029 C 89.416 75.625,88.904 76.416,88.636 76.786 C 88.369 77.155,87.857 77.946,87.500 78.543 C 87.143 79.139,86.522 80.032,86.120 80.526 C 85.718 81.020,85.390 81.627,85.390 81.874 C 85.390 82.121,85.134 82.678,84.821 83.113 C 84.509 83.547,83.961 84.458,83.604 85.137 C 80.514 91.010,78.923 94.267,78.743 95.088 C 78.626 95.622,78.329 96.225,78.084 96.429 C 77.840 96.632,77.540 97.250,77.418 97.803 C 77.297 98.356,76.849 99.463,76.424 100.264 C 75.998 101.065,75.649 102.117,75.649 102.602 C 75.649 103.087,75.378 103.832,75.046 104.258 C 74.714 104.684,74.337 105.744,74.208 106.614 C 74.080 107.484,73.706 108.726,73.378 109.374 C 73.050 110.022,72.683 111.356,72.561 112.338 C 72.440 113.320,72.118 114.474,71.846 114.902 C 71.574 115.329,71.154 117.091,70.913 118.815 C 70.672 120.539,70.266 122.454,70.011 123.069 C 69.756 123.685,69.451 125.942,69.332 128.084 C 69.214 130.227,68.872 132.930,68.572 134.091 C 67.880 136.776,67.758 153.636,68.418 155.519 C 68.637 156.144,68.976 158.690,69.171 161.177 C 69.367 163.663,69.724 166.293,69.966 167.021 C 70.208 167.749,70.654 169.946,70.956 171.905 C 71.258 173.863,71.692 175.762,71.920 176.125 C 72.148 176.489,72.503 177.788,72.709 179.013 C 72.915 180.237,73.281 181.552,73.522 181.935 C 73.764 182.317,74.123 183.411,74.322 184.365 C 74.520 185.320,74.899 186.411,75.166 186.791 C 75.432 187.171,75.649 187.784,75.649 188.153 C 75.649 188.522,75.945 189.403,76.307 190.110 C 76.668 190.817,77.120 191.981,77.311 192.695 C 77.502 193.409,77.846 194.213,78.076 194.481 C 78.306 194.748,78.604 195.333,78.737 195.779 C 78.960 196.525,81.122 201.137,81.781 202.273 C 81.937 202.541,82.304 203.271,82.597 203.896 C 82.891 204.521,83.488 205.617,83.924 206.331 C 84.360 207.045,84.947 208.113,85.228 208.704 C 85.509 209.295,86.354 210.687,87.107 211.796 C 87.859 212.906,88.620 214.051,88.799 214.340 C 88.977 214.628,89.854 215.932,90.747 217.235 C 92.275 219.467,92.906 220.252,94.565 221.985 C 95.235 222.684,95.237 222.720,94.654 223.364 C 94.058 224.023,93.881 224.026,55.345 224.026 L 16.634 224.026 16.438 224.756 C 15.910 226.730,16.225 271.017,16.771 271.470 C 17.221 271.844,31.361 271.954,104.676 272.156 C 152.729 272.288,195.260 272.407,199.188 272.419 C 203.117 272.431,234.534 272.348,269.003 272.236 L 331.675 272.031 332.315 272.737 C 332.920 273.406,332.960 274.028,333.052 284.287 C 333.148 294.949,333.219 295.611,334.186 294.801 C 334.401 294.621,335.162 294.028,335.877 293.484 C 337.447 292.288,380.119 249.752,380.558 248.945 C 380.755 248.582,380.751 248.160,380.546 247.776 C 380.234 247.193,339.288 206.246,335.717 202.946 C 332.965 200.402,333.117 199.863,333.117 212.152 C 333.117 221.586,333.050 223.072,332.607 223.516 C 331.898 224.224,297.694 224.267,294.750 223.563 C 292.149 222.941,292.013 222.808,292.951 221.799 C 293.389 221.327,294.243 220.211,294.850 219.318 C 295.456 218.425,296.548 216.891,297.277 215.909 C 298.512 214.243,299.005 213.462,300.376 210.990 C 300.672 210.457,301.128 209.775,301.391 209.474 C 301.653 209.174,302.367 207.979,302.979 206.818 C 303.590 205.657,304.324 204.343,304.609 203.896 C 304.894 203.450,305.235 202.719,305.366 202.273 C 305.497 201.826,305.859 201.096,306.169 200.649 C 306.479 200.203,306.844 199.472,306.981 199.026 C 307.117 198.580,307.481 197.849,307.790 197.403 C 308.099 196.956,308.521 196.068,308.728 195.428 C 308.936 194.788,309.394 193.698,309.747 193.005 C 310.101 192.313,310.390 191.552,310.390 191.315 C 310.390 191.077,310.682 190.310,311.039 189.610 C 311.396 188.910,311.688 188.002,311.688 187.592 C 311.688 187.181,312.041 186.182,312.473 185.371 C 312.905 184.561,313.362 183.320,313.490 182.614 C 313.618 181.909,313.903 180.966,314.123 180.519 C 314.343 180.073,314.706 178.685,314.930 177.435 C 315.154 176.185,315.601 174.359,315.923 173.377 C 316.245 172.394,316.609 170.641,316.731 169.481 C 316.852 168.320,317.216 166.128,317.538 164.610 C 318.066 162.126,318.398 158.486,319.005 148.539 C 319.200 145.343,318.421 131.536,317.879 128.571 C 317.732 127.768,317.362 125.649,317.057 123.864 C 316.753 122.078,316.287 119.740,316.022 118.669 C 315.757 117.597,315.262 115.442,314.921 113.879 C 314.580 112.316,314.079 110.606,313.806 110.080 C 313.534 109.554,313.310 108.787,313.309 108.377 C 313.307 107.966,312.942 106.848,312.497 105.893 C 312.052 104.938,311.687 103.915,311.685 103.620 C 311.684 103.326,311.323 102.354,310.884 101.461 C 310.445 100.568,310.081 99.604,310.075 99.318 C 310.070 99.032,309.718 98.146,309.294 97.348 C 308.870 96.551,308.416 95.543,308.285 95.108 C 307.966 94.054,304.521 87.036,304.235 86.859 C 304.111 86.783,303.516 85.727,302.914 84.513 C 302.311 83.299,301.518 81.870,301.152 81.338 C 300.786 80.806,300.341 80.131,300.162 79.839 C 299.801 79.247,299.125 78.228,297.489 75.812 C 294.163 70.897,293.469 69.910,292.925 69.318 C 292.597 68.961,291.684 67.865,290.898 66.883 C 286.868 61.853,281.926 56.752,276.826 52.361 C 275.018 50.805,273.348 49.272,273.115 48.954 C 272.881 48.636,272.533 48.377,272.340 48.377 C 272.148 48.377,271.663 48.048,271.263 47.646 C 270.863 47.244,270.002 46.550,269.349 46.104 C 267.074 44.547,265.096 43.017,264.838 42.614 C 264.695 42.390,264.392 42.208,264.165 42.208 C 263.938 42.208,263.178 41.774,262.477 41.243 C 261.775 40.712,261.037 40.274,260.835 40.269 C 260.634 40.264,260.280 40.032,260.049 39.754 C 259.819 39.476,259.180 39.030,258.630 38.762 C 258.080 38.495,256.899 37.849,256.006 37.325 C 255.114 36.802,253.762 36.084,253.003 35.731 C 252.244 35.377,251.623 34.960,251.623 34.803 C 251.623 34.647,251.045 34.345,250.339 34.134 C 249.633 33.922,248.863 33.556,248.627 33.321 C 248.392 33.086,247.438 32.640,246.506 32.331 C 245.575 32.022,244.732 31.638,244.633 31.478 C 244.534 31.317,243.843 31.022,243.098 30.822 C 242.353 30.621,241.390 30.179,240.958 29.839 C 240.526 29.499,239.858 29.221,239.473 29.221 C 239.088 29.221,238.195 28.922,237.487 28.557 C 236.780 28.192,235.520 27.744,234.687 27.562 C 233.853 27.380,232.617 26.948,231.939 26.602 C 231.261 26.257,230.263 25.973,229.720 25.971 C 229.178 25.969,228.003 25.609,227.110 25.170 C 226.164 24.704,224.878 24.361,224.026 24.347 C 223.222 24.333,221.981 24.093,221.266 23.814 C 220.552 23.534,218.578 23.109,216.880 22.870 C 215.182 22.631,212.918 22.203,211.848 21.920 C 208.184 20.949,196.098 20.616,182.955 21.125 M201.461 66.737 C 203.247 67.002,205.950 67.366,207.468 67.546 C 208.985 67.726,211.068 68.162,212.095 68.515 C 213.123 68.867,214.365 69.157,214.855 69.158 C 215.346 69.159,216.185 69.389,216.721 69.669 C 217.256 69.949,218.445 70.374,219.363 70.614 C 220.280 70.853,221.478 71.281,222.025 71.564 C 222.572 71.846,223.218 72.078,223.461 72.078 C 224.092 72.078,233.334 76.789,234.606 77.759 C 235.192 78.206,235.764 78.571,235.878 78.571 C 235.991 78.571,236.721 79.010,237.500 79.545 C 238.279 80.081,239.037 80.519,239.185 80.519 C 239.333 80.519,239.637 80.812,239.860 81.169 C 240.083 81.526,240.421 81.818,240.611 81.818 C 242.042 81.818,254.672 94.170,257.543 98.377 C 257.848 98.823,258.534 99.773,259.068 100.487 C 259.602 101.201,260.265 102.224,260.540 102.760 C 260.816 103.295,261.470 104.391,261.995 105.195 C 262.994 106.725,265.584 111.753,265.584 112.161 C 265.584 112.291,265.877 112.769,266.234 113.223 C 266.591 113.677,266.883 114.299,266.883 114.606 C 266.883 114.912,267.240 115.835,267.677 116.656 C 268.114 117.477,268.571 118.705,268.692 119.383 C 268.814 120.062,269.123 120.857,269.379 121.151 C 269.635 121.445,269.986 122.682,270.158 123.900 C 270.331 125.118,270.671 126.418,270.914 126.790 C 271.158 127.161,271.523 128.993,271.725 130.859 C 271.928 132.726,272.304 135.130,272.561 136.201 C 273.217 138.933,273.238 152.068,272.591 154.558 C 272.338 155.533,271.970 157.767,271.775 159.521 C 271.580 161.275,271.204 163.130,270.939 163.642 C 270.674 164.154,270.324 165.516,270.160 166.669 C 269.997 167.822,269.645 169.109,269.379 169.529 C 269.112 169.949,268.794 170.909,268.673 171.663 C 268.552 172.416,268.192 173.366,267.873 173.773 C 267.553 174.180,267.191 174.979,267.066 175.548 C 266.843 176.570,265.018 180.433,264.376 181.240 C 264.194 181.469,263.869 182.204,263.653 182.873 C 263.438 183.543,263.149 184.091,263.011 184.091 C 262.874 184.091,262.497 184.675,262.175 185.390 C 261.853 186.104,261.482 186.688,261.350 186.688 C 261.218 186.688,260.874 187.278,260.585 187.998 C 260.297 188.718,259.843 189.391,259.576 189.494 C 259.309 189.596,259.091 189.859,259.091 190.078 C 259.091 190.551,254.091 196.967,252.257 198.849 C 251.552 199.571,250.417 200.747,249.734 201.461 C 248.667 202.576,247.054 204.042,243.657 206.981 C 243.244 207.338,242.366 207.995,241.705 208.442 C 241.044 208.888,240.176 209.582,239.776 209.984 C 239.376 210.386,238.901 210.714,238.720 210.714 C 238.539 210.714,238.215 210.926,238.000 211.185 C 237.626 211.636,235.199 213.117,232.792 214.364 C 231.662 214.949,231.375 215.115,229.216 216.442 C 228.594 216.825,227.573 217.242,226.948 217.370 C 226.323 217.498,225.519 217.867,225.162 218.191 C 224.805 218.514,223.970 218.879,223.307 219.001 C 222.644 219.124,221.939 219.420,221.740 219.659 C 221.541 219.898,220.550 220.264,219.537 220.470 C 218.524 220.677,217.468 221.047,217.191 221.292 C 216.914 221.537,215.745 221.875,214.593 222.043 C 213.442 222.211,212.034 222.586,211.465 222.877 C 209.622 223.816,203.418 224.058,183.766 223.959 C 161.806 223.849,162.985 224.008,162.583 221.101 C 162.095 217.574,161.619 214.738,161.194 212.825 C 160.956 211.753,160.668 209.781,160.554 208.442 C 160.440 207.102,160.142 205.270,159.892 204.371 C 159.642 203.471,159.282 201.353,159.093 199.663 C 158.903 197.973,158.473 195.568,158.137 194.318 C 157.801 193.068,157.434 191.503,157.322 190.839 C 157.068 189.341,156.644 189.042,156.141 190.007 C 155.929 190.414,155.520 190.992,155.232 191.291 C 154.944 191.590,154.343 192.361,153.896 193.004 C 153.450 193.647,152.317 195.191,151.380 196.436 C 150.442 197.680,149.675 198.844,149.675 199.022 C 149.675 199.200,149.383 199.528,149.026 199.751 C 148.669 199.974,148.377 200.326,148.377 200.534 C 148.377 200.858,147.183 202.493,145.683 204.221 C 145.451 204.489,145.009 205.110,144.701 205.601 C 143.520 207.484,142.622 207.012,137.533 201.835 C 133.024 197.248,130.631 194.590,130.073 193.549 C 129.917 193.258,129.625 192.873,129.424 192.695 C 129.223 192.516,128.440 191.420,127.685 190.260 C 126.930 189.099,126.195 188.003,126.051 187.825 C 125.908 187.646,125.536 186.958,125.224 186.296 C 124.913 185.634,124.525 185.011,124.363 184.910 C 123.984 184.676,120.130 176.852,120.130 176.317 C 120.130 176.094,119.914 175.524,119.650 175.050 C 118.605 173.174,116.991 167.769,115.901 162.500 C 115.569 160.893,115.150 158.985,114.972 158.261 C 113.752 153.319,113.832 136.779,115.096 132.581 C 115.357 131.715,115.665 130.130,115.781 129.058 C 115.897 127.987,116.196 126.609,116.445 125.997 C 116.695 125.384,117.104 123.897,117.356 122.691 C 117.607 121.486,118.025 120.160,118.283 119.746 C 118.542 119.332,118.856 118.555,118.980 118.019 C 119.104 117.484,119.436 116.534,119.718 115.909 C 121.466 112.025,122.553 109.801,123.049 109.091 C 123.361 108.644,123.725 107.914,123.858 107.468 C 123.991 107.021,124.631 105.874,125.280 104.917 C 125.930 103.961,126.607 102.936,126.786 102.638 C 126.964 102.340,127.439 101.639,127.841 101.080 C 128.243 100.520,128.571 99.933,128.571 99.775 C 128.571 99.616,129.169 98.835,129.899 98.039 C 130.629 97.243,132.007 95.562,132.961 94.305 C 134.833 91.838,139.330 87.362,142.208 85.100 C 143.190 84.328,144.465 83.323,145.041 82.867 C 146.786 81.487,149.446 79.602,150.649 78.894 C 151.274 78.526,152.443 77.805,153.247 77.292 C 157.381 74.653,166.862 70.589,171.591 69.429 C 172.305 69.254,173.839 68.832,175.000 68.493 C 176.161 68.153,178.937 67.637,181.169 67.346 C 183.401 67.055,185.958 66.703,186.851 66.563 C 189.641 66.127,198.029 66.227,201.461 66.737 " stroke="none" fill="#8C5B25" fill-rule="evenodd"></path></g></svg>
